ISO-10303-21;
HEADER;
/* Generated by software containing ST-Developer
 * from STEP Tools, Inc. (www.steptools.com) 
 */

FILE_DESCRIPTION(
/* description */ (''),
/* implementation_level */ '2;1');

FILE_NAME(
/* name */ 'transmittercover.step',
/* time_stamp */ '2026-04-17T20:45:25+08:00',
/* author */ (''),
/* organization */ (''),
/* preprocessor_version */ 'ST-DEVELOPER v20.1',
/* originating_system */ 'Autodesk Translation Framework v14.24.0.0',
/* authorisation */ '');

FILE_SCHEMA (('AUTOMOTIVE_DESIGN { 1 0 10303 214 3 1 1 }'));
ENDSEC;

DATA;
#10=MECHANICAL_DESIGN_GEOMETRIC_PRESENTATION_REPRESENTATION('',(#13),#1023);
#11=SHAPE_REPRESENTATION_RELATIONSHIP('SRR','None',#1030,#12);
#12=ADVANCED_BREP_SHAPE_REPRESENTATION('',(#14),#1022);
#13=STYLED_ITEM('',(#1039),#14);
#14=MANIFOLD_SOLID_BREP('Transmitter Cover',#595);
#15=CYLINDRICAL_SURFACE('',#627,1.50000000000001);
#16=CYLINDRICAL_SURFACE('',#630,1.50000000000001);
#17=CYLINDRICAL_SURFACE('',#633,1.49999999999999);
#18=CYLINDRICAL_SURFACE('',#636,1.49999999999999);
#19=CYLINDRICAL_SURFACE('',#639,2.00000000000001);
#20=CYLINDRICAL_SURFACE('',#642,1.99999999999998);
#21=CYLINDRICAL_SURFACE('',#644,1.6);
#22=CYLINDRICAL_SURFACE('',#646,1.6);
#23=CYLINDRICAL_SURFACE('',#648,1.6);
#24=CYLINDRICAL_SURFACE('',#650,1.6);
#25=CYLINDRICAL_SURFACE('',#652,2.00000000000001);
#26=CYLINDRICAL_SURFACE('',#655,1.99999999999998);
#27=CYLINDRICAL_SURFACE('',#658,1.50000000000001);
#28=CYLINDRICAL_SURFACE('',#661,1.5);
#29=CYLINDRICAL_SURFACE('',#664,1.5);
#30=CYLINDRICAL_SURFACE('',#667,1.5);
#31=FACE_BOUND('',#70,.T.);
#32=FACE_BOUND('',#71,.T.);
#33=FACE_BOUND('',#72,.T.);
#34=FACE_BOUND('',#73,.T.);
#35=FACE_BOUND('',#103,.T.);
#36=FACE_BOUND('',#104,.T.);
#37=FACE_BOUND('',#105,.T.);
#38=FACE_BOUND('',#106,.T.);
#39=FACE_OUTER_BOUND('',#69,.T.);
#40=FACE_OUTER_BOUND('',#74,.T.);
#41=FACE_OUTER_BOUND('',#75,.T.);
#42=FACE_OUTER_BOUND('',#76,.T.);
#43=FACE_OUTER_BOUND('',#77,.T.);
#44=FACE_OUTER_BOUND('',#78,.T.);
#45=FACE_OUTER_BOUND('',#79,.T.);
#46=FACE_OUTER_BOUND('',#80,.T.);
#47=FACE_OUTER_BOUND('',#81,.T.);
#48=FACE_OUTER_BOUND('',#82,.T.);
#49=FACE_OUTER_BOUND('',#83,.T.);
#50=FACE_OUTER_BOUND('',#84,.T.);
#51=FACE_OUTER_BOUND('',#85,.T.);
#52=FACE_OUTER_BOUND('',#86,.T.);
#53=FACE_OUTER_BOUND('',#87,.T.);
#54=FACE_OUTER_BOUND('',#88,.T.);
#55=FACE_OUTER_BOUND('',#89,.T.);
#56=FACE_OUTER_BOUND('',#90,.T.);
#57=FACE_OUTER_BOUND('',#91,.T.);
#58=FACE_OUTER_BOUND('',#92,.T.);
#59=FACE_OUTER_BOUND('',#93,.T.);
#60=FACE_OUTER_BOUND('',#94,.T.);
#61=FACE_OUTER_BOUND('',#95,.T.);
#62=FACE_OUTER_BOUND('',#96,.T.);
#63=FACE_OUTER_BOUND('',#97,.T.);
#64=FACE_OUTER_BOUND('',#98,.T.);
#65=FACE_OUTER_BOUND('',#99,.T.);
#66=FACE_OUTER_BOUND('',#100,.T.);
#67=FACE_OUTER_BOUND('',#101,.T.);
#68=FACE_OUTER_BOUND('',#102,.T.);
#69=EDGE_LOOP('',(#383,#384,#385,#386,#387,#388,#389,#390,#391,#392,#393,
#394,#395,#396,#397,#398,#399,#400,#401,#402,#403,#404,#405,#406));
#70=EDGE_LOOP('',(#407));
#71=EDGE_LOOP('',(#408));
#72=EDGE_LOOP('',(#409));
#73=EDGE_LOOP('',(#410));
#74=EDGE_LOOP('',(#411,#412,#413,#414));
#75=EDGE_LOOP('',(#415,#416,#417,#418));
#76=EDGE_LOOP('',(#419,#420,#421,#422));
#77=EDGE_LOOP('',(#423,#424,#425,#426));
#78=EDGE_LOOP('',(#427,#428,#429,#430));
#79=EDGE_LOOP('',(#431,#432,#433,#434));
#80=EDGE_LOOP('',(#435,#436,#437,#438));
#81=EDGE_LOOP('',(#439,#440,#441,#442));
#82=EDGE_LOOP('',(#443,#444,#445,#446));
#83=EDGE_LOOP('',(#447,#448,#449,#450));
#84=EDGE_LOOP('',(#451,#452,#453,#454));
#85=EDGE_LOOP('',(#455,#456,#457,#458));
#86=EDGE_LOOP('',(#459,#460,#461,#462));
#87=EDGE_LOOP('',(#463,#464,#465,#466));
#88=EDGE_LOOP('',(#467,#468,#469,#470));
#89=EDGE_LOOP('',(#471,#472,#473,#474));
#90=EDGE_LOOP('',(#475,#476,#477,#478));
#91=EDGE_LOOP('',(#479,#480,#481,#482));
#92=EDGE_LOOP('',(#483,#484,#485,#486));
#93=EDGE_LOOP('',(#487,#488,#489,#490));
#94=EDGE_LOOP('',(#491,#492,#493,#494));
#95=EDGE_LOOP('',(#495,#496,#497,#498));
#96=EDGE_LOOP('',(#499,#500,#501,#502));
#97=EDGE_LOOP('',(#503,#504,#505,#506));
#98=EDGE_LOOP('',(#507,#508,#509,#510));
#99=EDGE_LOOP('',(#511,#512,#513,#514));
#100=EDGE_LOOP('',(#515,#516,#517,#518));
#101=EDGE_LOOP('',(#519,#520,#521,#522));
#102=EDGE_LOOP('',(#523,#524,#525,#526,#527,#528,#529,#530,#531,#532,#533,
#534,#535,#536,#537,#538,#539,#540,#541,#542,#543,#544,#545,#546));
#103=EDGE_LOOP('',(#547));
#104=EDGE_LOOP('',(#548));
#105=EDGE_LOOP('',(#549));
#106=EDGE_LOOP('',(#550));
#107=LINE('',#855,#159);
#108=LINE('',#859,#160);
#109=LINE('',#863,#161);
#110=LINE('',#867,#162);
#111=LINE('',#871,#163);
#112=LINE('',#875,#164);
#113=LINE('',#879,#165);
#114=LINE('',#883,#166);
#115=LINE('',#887,#167);
#116=LINE('',#891,#168);
#117=LINE('',#895,#169);
#118=LINE('',#898,#170);
#119=LINE('',#909,#171);
#120=LINE('',#911,#172);
#121=LINE('',#912,#173);
#122=LINE('',#915,#174);
#123=LINE('',#919,#175);
#124=LINE('',#920,#176);
#125=LINE('',#923,#177);
#126=LINE('',#927,#178);
#127=LINE('',#928,#179);
#128=LINE('',#931,#180);
#129=LINE('',#935,#181);
#130=LINE('',#936,#182);
#131=LINE('',#939,#183);
#132=LINE('',#943,#184);
#133=LINE('',#944,#185);
#134=LINE('',#947,#186);
#135=LINE('',#951,#187);
#136=LINE('',#952,#188);
#137=LINE('',#955,#189);
#138=LINE('',#960,#190);
#139=LINE('',#964,#191);
#140=LINE('',#968,#192);
#141=LINE('',#972,#193);
#142=LINE('',#976,#194);
#143=LINE('',#979,#195);
#144=LINE('',#980,#196);
#145=LINE('',#984,#197);
#146=LINE('',#987,#198);
#147=LINE('',#988,#199);
#148=LINE('',#992,#200);
#149=LINE('',#995,#201);
#150=LINE('',#996,#202);
#151=LINE('',#1000,#203);
#152=LINE('',#1003,#204);
#153=LINE('',#1004,#205);
#154=LINE('',#1008,#206);
#155=LINE('',#1011,#207);
#156=LINE('',#1012,#208);
#157=LINE('',#1016,#209);
#158=LINE('',#1018,#210);
#159=VECTOR('',#677,10.);
#160=VECTOR('',#680,10.);
#161=VECTOR('',#683,10.);
#162=VECTOR('',#686,10.);
#163=VECTOR('',#689,10.);
#164=VECTOR('',#692,10.);
#165=VECTOR('',#695,10.);
#166=VECTOR('',#698,10.);
#167=VECTOR('',#701,10.);
#168=VECTOR('',#704,10.);
#169=VECTOR('',#707,10.);
#170=VECTOR('',#710,10.);
#171=VECTOR('',#721,10.);
#172=VECTOR('',#722,10.);
#173=VECTOR('',#723,10.);
#174=VECTOR('',#726,10.);
#175=VECTOR('',#731,10.);
#176=VECTOR('',#732,10.);
#177=VECTOR('',#735,10.);
#178=VECTOR('',#740,10.);
#179=VECTOR('',#741,10.);
#180=VECTOR('',#744,10.);
#181=VECTOR('',#749,10.);
#182=VECTOR('',#750,10.);
#183=VECTOR('',#753,10.);
#184=VECTOR('',#758,10.);
#185=VECTOR('',#759,10.);
#186=VECTOR('',#762,10.);
#187=VECTOR('',#767,10.);
#188=VECTOR('',#768,10.);
#189=VECTOR('',#771,10.);
#190=VECTOR('',#778,1.6);
#191=VECTOR('',#783,1.6);
#192=VECTOR('',#788,1.6);
#193=VECTOR('',#793,1.6);
#194=VECTOR('',#798,10.);
#195=VECTOR('',#801,10.);
#196=VECTOR('',#802,10.);
#197=VECTOR('',#807,10.);
#198=VECTOR('',#810,10.);
#199=VECTOR('',#811,10.);
#200=VECTOR('',#816,10.);
#201=VECTOR('',#819,10.);
#202=VECTOR('',#820,10.);
#203=VECTOR('',#825,10.);
#204=VECTOR('',#828,10.);
#205=VECTOR('',#829,10.);
#206=VECTOR('',#834,10.);
#207=VECTOR('',#837,10.);
#208=VECTOR('',#838,10.);
#209=VECTOR('',#843,10.);
#210=VECTOR('',#846,10.);
#211=CIRCLE('',#610,1.99999999999998);
#212=CIRCLE('',#611,2.00000000000001);
#213=CIRCLE('',#612,1.49999999999999);
#214=CIRCLE('',#613,1.49999999999999);
#215=CIRCLE('',#614,1.50000000000001);
#216=CIRCLE('',#615,1.50000000000001);
#217=CIRCLE('',#616,2.00000000000001);
#218=CIRCLE('',#617,1.99999999999998);
#219=CIRCLE('',#618,1.50000000000001);
#220=CIRCLE('',#619,1.5);
#221=CIRCLE('',#620,1.5);
#222=CIRCLE('',#621,1.5);
#223=CIRCLE('',#622,1.6);
#224=CIRCLE('',#623,1.6);
#225=CIRCLE('',#624,1.6);
#226=CIRCLE('',#625,1.6);
#227=CIRCLE('',#628,1.50000000000001);
#228=CIRCLE('',#631,1.50000000000001);
#229=CIRCLE('',#634,1.49999999999999);
#230=CIRCLE('',#637,1.49999999999999);
#231=CIRCLE('',#640,2.00000000000001);
#232=CIRCLE('',#643,1.99999999999998);
#233=CIRCLE('',#645,1.6);
#234=CIRCLE('',#647,1.6);
#235=CIRCLE('',#649,1.6);
#236=CIRCLE('',#651,1.6);
#237=CIRCLE('',#653,2.00000000000001);
#238=CIRCLE('',#656,1.99999999999998);
#239=CIRCLE('',#659,1.50000000000001);
#240=CIRCLE('',#662,1.5);
#241=CIRCLE('',#665,1.5);
#242=CIRCLE('',#668,1.5);
#243=VERTEX_POINT('',#851);
#244=VERTEX_POINT('',#852);
#245=VERTEX_POINT('',#854);
#246=VERTEX_POINT('',#856);
#247=VERTEX_POINT('',#858);
#248=VERTEX_POINT('',#860);
#249=VERTEX_POINT('',#862);
#250=VERTEX_POINT('',#864);
#251=VERTEX_POINT('',#866);
#252=VERTEX_POINT('',#868);
#253=VERTEX_POINT('',#870);
#254=VERTEX_POINT('',#872);
#255=VERTEX_POINT('',#874);
#256=VERTEX_POINT('',#876);
#257=VERTEX_POINT('',#878);
#258=VERTEX_POINT('',#880);
#259=VERTEX_POINT('',#882);
#260=VERTEX_POINT('',#884);
#261=VERTEX_POINT('',#886);
#262=VERTEX_POINT('',#888);
#263=VERTEX_POINT('',#890);
#264=VERTEX_POINT('',#892);
#265=VERTEX_POINT('',#894);
#266=VERTEX_POINT('',#896);
#267=VERTEX_POINT('',#899);
#268=VERTEX_POINT('',#901);
#269=VERTEX_POINT('',#903);
#270=VERTEX_POINT('',#905);
#271=VERTEX_POINT('',#908);
#272=VERTEX_POINT('',#910);
#273=VERTEX_POINT('',#914);
#274=VERTEX_POINT('',#918);
#275=VERTEX_POINT('',#922);
#276=VERTEX_POINT('',#926);
#277=VERTEX_POINT('',#930);
#278=VERTEX_POINT('',#934);
#279=VERTEX_POINT('',#938);
#280=VERTEX_POINT('',#942);
#281=VERTEX_POINT('',#946);
#282=VERTEX_POINT('',#950);
#283=VERTEX_POINT('',#954);
#284=VERTEX_POINT('',#958);
#285=VERTEX_POINT('',#962);
#286=VERTEX_POINT('',#966);
#287=VERTEX_POINT('',#970);
#288=VERTEX_POINT('',#974);
#289=VERTEX_POINT('',#978);
#290=VERTEX_POINT('',#982);
#291=VERTEX_POINT('',#986);
#292=VERTEX_POINT('',#990);
#293=VERTEX_POINT('',#994);
#294=VERTEX_POINT('',#998);
#295=VERTEX_POINT('',#1002);
#296=VERTEX_POINT('',#1006);
#297=VERTEX_POINT('',#1010);
#298=VERTEX_POINT('',#1014);
#299=EDGE_CURVE('',#243,#244,#211,.T.);
#300=EDGE_CURVE('',#245,#243,#107,.T.);
#301=EDGE_CURVE('',#246,#245,#212,.T.);
#302=EDGE_CURVE('',#247,#246,#108,.T.);
#303=EDGE_CURVE('',#248,#247,#213,.T.);
#304=EDGE_CURVE('',#249,#248,#109,.T.);
#305=EDGE_CURVE('',#250,#249,#214,.T.);
#306=EDGE_CURVE('',#251,#250,#110,.T.);
#307=EDGE_CURVE('',#252,#251,#215,.T.);
#308=EDGE_CURVE('',#253,#252,#111,.T.);
#309=EDGE_CURVE('',#254,#253,#216,.T.);
#310=EDGE_CURVE('',#255,#254,#112,.T.);
#311=EDGE_CURVE('',#256,#255,#217,.T.);
#312=EDGE_CURVE('',#257,#256,#113,.T.);
#313=EDGE_CURVE('',#258,#257,#218,.T.);
#314=EDGE_CURVE('',#259,#258,#114,.T.);
#315=EDGE_CURVE('',#260,#259,#219,.T.);
#316=EDGE_CURVE('',#261,#260,#115,.T.);
#317=EDGE_CURVE('',#262,#261,#220,.T.);
#318=EDGE_CURVE('',#263,#262,#116,.T.);
#319=EDGE_CURVE('',#264,#263,#221,.T.);
#320=EDGE_CURVE('',#265,#264,#117,.T.);
#321=EDGE_CURVE('',#266,#265,#222,.T.);
#322=EDGE_CURVE('',#244,#266,#118,.T.);
#323=EDGE_CURVE('',#267,#267,#223,.T.);
#324=EDGE_CURVE('',#268,#268,#224,.T.);
#325=EDGE_CURVE('',#269,#269,#225,.T.);
#326=EDGE_CURVE('',#270,#270,#226,.T.);
#327=EDGE_CURVE('',#254,#271,#119,.T.);
#328=EDGE_CURVE('',#272,#271,#120,.T.);
#329=EDGE_CURVE('',#255,#272,#121,.T.);
#330=EDGE_CURVE('',#253,#273,#122,.T.);
#331=EDGE_CURVE('',#271,#273,#227,.T.);
#332=EDGE_CURVE('',#252,#274,#123,.T.);
#333=EDGE_CURVE('',#273,#274,#124,.T.);
#334=EDGE_CURVE('',#251,#275,#125,.T.);
#335=EDGE_CURVE('',#274,#275,#228,.T.);
#336=EDGE_CURVE('',#250,#276,#126,.T.);
#337=EDGE_CURVE('',#275,#276,#127,.T.);
#338=EDGE_CURVE('',#249,#277,#128,.T.);
#339=EDGE_CURVE('',#276,#277,#229,.T.);
#340=EDGE_CURVE('',#248,#278,#129,.T.);
#341=EDGE_CURVE('',#277,#278,#130,.T.);
#342=EDGE_CURVE('',#247,#279,#131,.T.);
#343=EDGE_CURVE('',#278,#279,#230,.T.);
#344=EDGE_CURVE('',#246,#280,#132,.T.);
#345=EDGE_CURVE('',#279,#280,#133,.T.);
#346=EDGE_CURVE('',#245,#281,#134,.T.);
#347=EDGE_CURVE('',#280,#281,#231,.T.);
#348=EDGE_CURVE('',#243,#282,#135,.T.);
#349=EDGE_CURVE('',#281,#282,#136,.T.);
#350=EDGE_CURVE('',#244,#283,#137,.T.);
#351=EDGE_CURVE('',#282,#283,#232,.T.);
#352=EDGE_CURVE('',#284,#284,#233,.T.);
#353=EDGE_CURVE('',#284,#270,#138,.T.);
#354=EDGE_CURVE('',#285,#285,#234,.T.);
#355=EDGE_CURVE('',#285,#269,#139,.T.);
#356=EDGE_CURVE('',#286,#286,#235,.T.);
#357=EDGE_CURVE('',#286,#268,#140,.T.);
#358=EDGE_CURVE('',#287,#287,#236,.T.);
#359=EDGE_CURVE('',#287,#267,#141,.T.);
#360=EDGE_CURVE('',#288,#272,#237,.T.);
#361=EDGE_CURVE('',#256,#288,#142,.T.);
#362=EDGE_CURVE('',#289,#288,#143,.T.);
#363=EDGE_CURVE('',#257,#289,#144,.T.);
#364=EDGE_CURVE('',#290,#289,#238,.T.);
#365=EDGE_CURVE('',#258,#290,#145,.T.);
#366=EDGE_CURVE('',#291,#290,#146,.T.);
#367=EDGE_CURVE('',#259,#291,#147,.T.);
#368=EDGE_CURVE('',#292,#291,#239,.T.);
#369=EDGE_CURVE('',#260,#292,#148,.T.);
#370=EDGE_CURVE('',#293,#292,#149,.T.);
#371=EDGE_CURVE('',#261,#293,#150,.T.);
#372=EDGE_CURVE('',#294,#293,#240,.T.);
#373=EDGE_CURVE('',#262,#294,#151,.T.);
#374=EDGE_CURVE('',#295,#294,#152,.T.);
#375=EDGE_CURVE('',#263,#295,#153,.T.);
#376=EDGE_CURVE('',#296,#295,#241,.T.);
#377=EDGE_CURVE('',#264,#296,#154,.T.);
#378=EDGE_CURVE('',#297,#296,#155,.T.);
#379=EDGE_CURVE('',#265,#297,#156,.T.);
#380=EDGE_CURVE('',#298,#297,#242,.T.);
#381=EDGE_CURVE('',#266,#298,#157,.T.);
#382=EDGE_CURVE('',#283,#298,#158,.T.);
#383=ORIENTED_EDGE('',*,*,#299,.F.);
#384=ORIENTED_EDGE('',*,*,#300,.F.);
#385=ORIENTED_EDGE('',*,*,#301,.F.);
#386=ORIENTED_EDGE('',*,*,#302,.F.);
#387=ORIENTED_EDGE('',*,*,#303,.F.);
#388=ORIENTED_EDGE('',*,*,#304,.F.);
#389=ORIENTED_EDGE('',*,*,#305,.F.);
#390=ORIENTED_EDGE('',*,*,#306,.F.);
#391=ORIENTED_EDGE('',*,*,#307,.F.);
#392=ORIENTED_EDGE('',*,*,#308,.F.);
#393=ORIENTED_EDGE('',*,*,#309,.F.);
#394=ORIENTED_EDGE('',*,*,#310,.F.);
#395=ORIENTED_EDGE('',*,*,#311,.F.);
#396=ORIENTED_EDGE('',*,*,#312,.F.);
#397=ORIENTED_EDGE('',*,*,#313,.F.);
#398=ORIENTED_EDGE('',*,*,#314,.F.);
#399=ORIENTED_EDGE('',*,*,#315,.F.);
#400=ORIENTED_EDGE('',*,*,#316,.F.);
#401=ORIENTED_EDGE('',*,*,#317,.F.);
#402=ORIENTED_EDGE('',*,*,#318,.F.);
#403=ORIENTED_EDGE('',*,*,#319,.F.);
#404=ORIENTED_EDGE('',*,*,#320,.F.);
#405=ORIENTED_EDGE('',*,*,#321,.F.);
#406=ORIENTED_EDGE('',*,*,#322,.F.);
#407=ORIENTED_EDGE('',*,*,#323,.F.);
#408=ORIENTED_EDGE('',*,*,#324,.F.);
#409=ORIENTED_EDGE('',*,*,#325,.F.);
#410=ORIENTED_EDGE('',*,*,#326,.F.);
#411=ORIENTED_EDGE('',*,*,#310,.T.);
#412=ORIENTED_EDGE('',*,*,#327,.T.);
#413=ORIENTED_EDGE('',*,*,#328,.F.);
#414=ORIENTED_EDGE('',*,*,#329,.F.);
#415=ORIENTED_EDGE('',*,*,#309,.T.);
#416=ORIENTED_EDGE('',*,*,#330,.T.);
#417=ORIENTED_EDGE('',*,*,#331,.F.);
#418=ORIENTED_EDGE('',*,*,#327,.F.);
#419=ORIENTED_EDGE('',*,*,#308,.T.);
#420=ORIENTED_EDGE('',*,*,#332,.T.);
#421=ORIENTED_EDGE('',*,*,#333,.F.);
#422=ORIENTED_EDGE('',*,*,#330,.F.);
#423=ORIENTED_EDGE('',*,*,#307,.T.);
#424=ORIENTED_EDGE('',*,*,#334,.T.);
#425=ORIENTED_EDGE('',*,*,#335,.F.);
#426=ORIENTED_EDGE('',*,*,#332,.F.);
#427=ORIENTED_EDGE('',*,*,#306,.T.);
#428=ORIENTED_EDGE('',*,*,#336,.T.);
#429=ORIENTED_EDGE('',*,*,#337,.F.);
#430=ORIENTED_EDGE('',*,*,#334,.F.);
#431=ORIENTED_EDGE('',*,*,#305,.T.);
#432=ORIENTED_EDGE('',*,*,#338,.T.);
#433=ORIENTED_EDGE('',*,*,#339,.F.);
#434=ORIENTED_EDGE('',*,*,#336,.F.);
#435=ORIENTED_EDGE('',*,*,#304,.T.);
#436=ORIENTED_EDGE('',*,*,#340,.T.);
#437=ORIENTED_EDGE('',*,*,#341,.F.);
#438=ORIENTED_EDGE('',*,*,#338,.F.);
#439=ORIENTED_EDGE('',*,*,#303,.T.);
#440=ORIENTED_EDGE('',*,*,#342,.T.);
#441=ORIENTED_EDGE('',*,*,#343,.F.);
#442=ORIENTED_EDGE('',*,*,#340,.F.);
#443=ORIENTED_EDGE('',*,*,#302,.T.);
#444=ORIENTED_EDGE('',*,*,#344,.T.);
#445=ORIENTED_EDGE('',*,*,#345,.F.);
#446=ORIENTED_EDGE('',*,*,#342,.F.);
#447=ORIENTED_EDGE('',*,*,#301,.T.);
#448=ORIENTED_EDGE('',*,*,#346,.T.);
#449=ORIENTED_EDGE('',*,*,#347,.F.);
#450=ORIENTED_EDGE('',*,*,#344,.F.);
#451=ORIENTED_EDGE('',*,*,#300,.T.);
#452=ORIENTED_EDGE('',*,*,#348,.T.);
#453=ORIENTED_EDGE('',*,*,#349,.F.);
#454=ORIENTED_EDGE('',*,*,#346,.F.);
#455=ORIENTED_EDGE('',*,*,#299,.T.);
#456=ORIENTED_EDGE('',*,*,#350,.T.);
#457=ORIENTED_EDGE('',*,*,#351,.F.);
#458=ORIENTED_EDGE('',*,*,#348,.F.);
#459=ORIENTED_EDGE('',*,*,#352,.F.);
#460=ORIENTED_EDGE('',*,*,#353,.T.);
#461=ORIENTED_EDGE('',*,*,#326,.T.);
#462=ORIENTED_EDGE('',*,*,#353,.F.);
#463=ORIENTED_EDGE('',*,*,#354,.F.);
#464=ORIENTED_EDGE('',*,*,#355,.T.);
#465=ORIENTED_EDGE('',*,*,#325,.T.);
#466=ORIENTED_EDGE('',*,*,#355,.F.);
#467=ORIENTED_EDGE('',*,*,#356,.F.);
#468=ORIENTED_EDGE('',*,*,#357,.T.);
#469=ORIENTED_EDGE('',*,*,#324,.T.);
#470=ORIENTED_EDGE('',*,*,#357,.F.);
#471=ORIENTED_EDGE('',*,*,#358,.F.);
#472=ORIENTED_EDGE('',*,*,#359,.T.);
#473=ORIENTED_EDGE('',*,*,#323,.T.);
#474=ORIENTED_EDGE('',*,*,#359,.F.);
#475=ORIENTED_EDGE('',*,*,#311,.T.);
#476=ORIENTED_EDGE('',*,*,#329,.T.);
#477=ORIENTED_EDGE('',*,*,#360,.F.);
#478=ORIENTED_EDGE('',*,*,#361,.F.);
#479=ORIENTED_EDGE('',*,*,#312,.T.);
#480=ORIENTED_EDGE('',*,*,#361,.T.);
#481=ORIENTED_EDGE('',*,*,#362,.F.);
#482=ORIENTED_EDGE('',*,*,#363,.F.);
#483=ORIENTED_EDGE('',*,*,#313,.T.);
#484=ORIENTED_EDGE('',*,*,#363,.T.);
#485=ORIENTED_EDGE('',*,*,#364,.F.);
#486=ORIENTED_EDGE('',*,*,#365,.F.);
#487=ORIENTED_EDGE('',*,*,#314,.T.);
#488=ORIENTED_EDGE('',*,*,#365,.T.);
#489=ORIENTED_EDGE('',*,*,#366,.F.);
#490=ORIENTED_EDGE('',*,*,#367,.F.);
#491=ORIENTED_EDGE('',*,*,#315,.T.);
#492=ORIENTED_EDGE('',*,*,#367,.T.);
#493=ORIENTED_EDGE('',*,*,#368,.F.);
#494=ORIENTED_EDGE('',*,*,#369,.F.);
#495=ORIENTED_EDGE('',*,*,#316,.T.);
#496=ORIENTED_EDGE('',*,*,#369,.T.);
#497=ORIENTED_EDGE('',*,*,#370,.F.);
#498=ORIENTED_EDGE('',*,*,#371,.F.);
#499=ORIENTED_EDGE('',*,*,#317,.T.);
#500=ORIENTED_EDGE('',*,*,#371,.T.);
#501=ORIENTED_EDGE('',*,*,#372,.F.);
#502=ORIENTED_EDGE('',*,*,#373,.F.);
#503=ORIENTED_EDGE('',*,*,#318,.T.);
#504=ORIENTED_EDGE('',*,*,#373,.T.);
#505=ORIENTED_EDGE('',*,*,#374,.F.);
#506=ORIENTED_EDGE('',*,*,#375,.F.);
#507=ORIENTED_EDGE('',*,*,#319,.T.);
#508=ORIENTED_EDGE('',*,*,#375,.T.);
#509=ORIENTED_EDGE('',*,*,#376,.F.);
#510=ORIENTED_EDGE('',*,*,#377,.F.);
#511=ORIENTED_EDGE('',*,*,#320,.T.);
#512=ORIENTED_EDGE('',*,*,#377,.T.);
#513=ORIENTED_EDGE('',*,*,#378,.F.);
#514=ORIENTED_EDGE('',*,*,#379,.F.);
#515=ORIENTED_EDGE('',*,*,#321,.T.);
#516=ORIENTED_EDGE('',*,*,#379,.T.);
#517=ORIENTED_EDGE('',*,*,#380,.F.);
#518=ORIENTED_EDGE('',*,*,#381,.F.);
#519=ORIENTED_EDGE('',*,*,#322,.T.);
#520=ORIENTED_EDGE('',*,*,#381,.T.);
#521=ORIENTED_EDGE('',*,*,#382,.F.);
#522=ORIENTED_EDGE('',*,*,#350,.F.);
#523=ORIENTED_EDGE('',*,*,#351,.T.);
#524=ORIENTED_EDGE('',*,*,#382,.T.);
#525=ORIENTED_EDGE('',*,*,#380,.T.);
#526=ORIENTED_EDGE('',*,*,#378,.T.);
#527=ORIENTED_EDGE('',*,*,#376,.T.);
#528=ORIENTED_EDGE('',*,*,#374,.T.);
#529=ORIENTED_EDGE('',*,*,#372,.T.);
#530=ORIENTED_EDGE('',*,*,#370,.T.);
#531=ORIENTED_EDGE('',*,*,#368,.T.);
#532=ORIENTED_EDGE('',*,*,#366,.T.);
#533=ORIENTED_EDGE('',*,*,#364,.T.);
#534=ORIENTED_EDGE('',*,*,#362,.T.);
#535=ORIENTED_EDGE('',*,*,#360,.T.);
#536=ORIENTED_EDGE('',*,*,#328,.T.);
#537=ORIENTED_EDGE('',*,*,#331,.T.);
#538=ORIENTED_EDGE('',*,*,#333,.T.);
#539=ORIENTED_EDGE('',*,*,#335,.T.);
#540=ORIENTED_EDGE('',*,*,#337,.T.);
#541=ORIENTED_EDGE('',*,*,#339,.T.);
#542=ORIENTED_EDGE('',*,*,#341,.T.);
#543=ORIENTED_EDGE('',*,*,#343,.T.);
#544=ORIENTED_EDGE('',*,*,#345,.T.);
#545=ORIENTED_EDGE('',*,*,#347,.T.);
#546=ORIENTED_EDGE('',*,*,#349,.T.);
#547=ORIENTED_EDGE('',*,*,#358,.T.);
#548=ORIENTED_EDGE('',*,*,#356,.T.);
#549=ORIENTED_EDGE('',*,*,#354,.T.);
#550=ORIENTED_EDGE('',*,*,#352,.T.);
#551=PLANE('',#609);
#552=PLANE('',#626);
#553=PLANE('',#629);
#554=PLANE('',#632);
#555=PLANE('',#635);
#556=PLANE('',#638);
#557=PLANE('',#641);
#558=PLANE('',#654);
#559=PLANE('',#657);
#560=PLANE('',#660);
#561=PLANE('',#663);
#562=PLANE('',#666);
#563=PLANE('',#669);
#564=PLANE('',#670);
#565=ADVANCED_FACE('',(#39,#31,#32,#33,#34),#551,.F.);
#566=ADVANCED_FACE('',(#40),#552,.T.);
#567=ADVANCED_FACE('',(#41),#15,.T.);
#568=ADVANCED_FACE('',(#42),#553,.T.);
#569=ADVANCED_FACE('',(#43),#16,.F.);
#570=ADVANCED_FACE('',(#44),#554,.T.);
#571=ADVANCED_FACE('',(#45),#17,.F.);
#572=ADVANCED_FACE('',(#46),#555,.T.);
#573=ADVANCED_FACE('',(#47),#18,.T.);
#574=ADVANCED_FACE('',(#48),#556,.T.);
#575=ADVANCED_FACE('',(#49),#19,.T.);
#576=ADVANCED_FACE('',(#50),#557,.T.);
#577=ADVANCED_FACE('',(#51),#20,.T.);
#578=ADVANCED_FACE('',(#52),#21,.F.);
#579=ADVANCED_FACE('',(#53),#22,.F.);
#580=ADVANCED_FACE('',(#54),#23,.F.);
#581=ADVANCED_FACE('',(#55),#24,.F.);
#582=ADVANCED_FACE('',(#56),#25,.T.);
#583=ADVANCED_FACE('',(#57),#558,.T.);
#584=ADVANCED_FACE('',(#58),#26,.T.);
#585=ADVANCED_FACE('',(#59),#559,.T.);
#586=ADVANCED_FACE('',(#60),#27,.T.);
#587=ADVANCED_FACE('',(#61),#560,.T.);
#588=ADVANCED_FACE('',(#62),#28,.F.);
#589=ADVANCED_FACE('',(#63),#561,.T.);
#590=ADVANCED_FACE('',(#64),#29,.F.);
#591=ADVANCED_FACE('',(#65),#562,.T.);
#592=ADVANCED_FACE('',(#66),#30,.T.);
#593=ADVANCED_FACE('',(#67),#563,.T.);
#594=ADVANCED_FACE('',(#68,#35,#36,#37,#38),#564,.T.);
#595=CLOSED_SHELL('',(#565,#566,#567,#568,#569,#570,#571,#572,#573,#574,
#575,#576,#577,#578,#579,#580,#581,#582,#583,#584,#585,#586,#587,#588,#589,
#590,#591,#592,#593,#594));
#596=DERIVED_UNIT_ELEMENT(#598,1.);
#597=DERIVED_UNIT_ELEMENT(#1025,-3.);
#598=(
MASS_UNIT()
NAMED_UNIT(*)
SI_UNIT(.KILO.,.GRAM.)
);
#599=DERIVED_UNIT((#596,#597));
#600=MEASURE_REPRESENTATION_ITEM('density measure',
POSITIVE_RATIO_MEASURE(7850.),#599);
#601=PROPERTY_DEFINITION_REPRESENTATION(#606,#603);
#602=PROPERTY_DEFINITION_REPRESENTATION(#607,#604);
#603=REPRESENTATION('material name',(#605),#1022);
#604=REPRESENTATION('density',(#600),#1022);
#605=DESCRIPTIVE_REPRESENTATION_ITEM('Steel','Steel');
#606=PROPERTY_DEFINITION('material property','material name',#1032);
#607=PROPERTY_DEFINITION('material property','density of part',#1032);
#608=AXIS2_PLACEMENT_3D('',#849,#671,#672);
#609=AXIS2_PLACEMENT_3D('',#850,#673,#674);
#610=AXIS2_PLACEMENT_3D('',#853,#675,#676);
#611=AXIS2_PLACEMENT_3D('',#857,#678,#679);
#612=AXIS2_PLACEMENT_3D('',#861,#681,#682);
#613=AXIS2_PLACEMENT_3D('',#865,#684,#685);
#614=AXIS2_PLACEMENT_3D('',#869,#687,#688);
#615=AXIS2_PLACEMENT_3D('',#873,#690,#691);
#616=AXIS2_PLACEMENT_3D('',#877,#693,#694);
#617=AXIS2_PLACEMENT_3D('',#881,#696,#697);
#618=AXIS2_PLACEMENT_3D('',#885,#699,#700);
#619=AXIS2_PLACEMENT_3D('',#889,#702,#703);
#620=AXIS2_PLACEMENT_3D('',#893,#705,#706);
#621=AXIS2_PLACEMENT_3D('',#897,#708,#709);
#622=AXIS2_PLACEMENT_3D('',#900,#711,#712);
#623=AXIS2_PLACEMENT_3D('',#902,#713,#714);
#624=AXIS2_PLACEMENT_3D('',#904,#715,#716);
#625=AXIS2_PLACEMENT_3D('',#906,#717,#718);
#626=AXIS2_PLACEMENT_3D('',#907,#719,#720);
#627=AXIS2_PLACEMENT_3D('',#913,#724,#725);
#628=AXIS2_PLACEMENT_3D('',#916,#727,#728);
#629=AXIS2_PLACEMENT_3D('',#917,#729,#730);
#630=AXIS2_PLACEMENT_3D('',#921,#733,#734);
#631=AXIS2_PLACEMENT_3D('',#924,#736,#737);
#632=AXIS2_PLACEMENT_3D('',#925,#738,#739);
#633=AXIS2_PLACEMENT_3D('',#929,#742,#743);
#634=AXIS2_PLACEMENT_3D('',#932,#745,#746);
#635=AXIS2_PLACEMENT_3D('',#933,#747,#748);
#636=AXIS2_PLACEMENT_3D('',#937,#751,#752);
#637=AXIS2_PLACEMENT_3D('',#940,#754,#755);
#638=AXIS2_PLACEMENT_3D('',#941,#756,#757);
#639=AXIS2_PLACEMENT_3D('',#945,#760,#761);
#640=AXIS2_PLACEMENT_3D('',#948,#763,#764);
#641=AXIS2_PLACEMENT_3D('',#949,#765,#766);
#642=AXIS2_PLACEMENT_3D('',#953,#769,#770);
#643=AXIS2_PLACEMENT_3D('',#956,#772,#773);
#644=AXIS2_PLACEMENT_3D('',#957,#774,#775);
#645=AXIS2_PLACEMENT_3D('',#959,#776,#777);
#646=AXIS2_PLACEMENT_3D('',#961,#779,#780);
#647=AXIS2_PLACEMENT_3D('',#963,#781,#782);
#648=AXIS2_PLACEMENT_3D('',#965,#784,#785);
#649=AXIS2_PLACEMENT_3D('',#967,#786,#787);
#650=AXIS2_PLACEMENT_3D('',#969,#789,#790);
#651=AXIS2_PLACEMENT_3D('',#971,#791,#792);
#652=AXIS2_PLACEMENT_3D('',#973,#794,#795);
#653=AXIS2_PLACEMENT_3D('',#975,#796,#797);
#654=AXIS2_PLACEMENT_3D('',#977,#799,#800);
#655=AXIS2_PLACEMENT_3D('',#981,#803,#804);
#656=AXIS2_PLACEMENT_3D('',#983,#805,#806);
#657=AXIS2_PLACEMENT_3D('',#985,#808,#809);
#658=AXIS2_PLACEMENT_3D('',#989,#812,#813);
#659=AXIS2_PLACEMENT_3D('',#991,#814,#815);
#660=AXIS2_PLACEMENT_3D('',#993,#817,#818);
#661=AXIS2_PLACEMENT_3D('',#997,#821,#822);
#662=AXIS2_PLACEMENT_3D('',#999,#823,#824);
#663=AXIS2_PLACEMENT_3D('',#1001,#826,#827);
#664=AXIS2_PLACEMENT_3D('',#1005,#830,#831);
#665=AXIS2_PLACEMENT_3D('',#1007,#832,#833);
#666=AXIS2_PLACEMENT_3D('',#1009,#835,#836);
#667=AXIS2_PLACEMENT_3D('',#1013,#839,#840);
#668=AXIS2_PLACEMENT_3D('',#1015,#841,#842);
#669=AXIS2_PLACEMENT_3D('',#1017,#844,#845);
#670=AXIS2_PLACEMENT_3D('',#1019,#847,#848);
#671=DIRECTION('axis',(0.,0.,1.));
#672=DIRECTION('refdir',(1.,0.,0.));
#673=DIRECTION('center_axis',(0.,0.,1.));
#674=DIRECTION('ref_axis',(1.,0.,0.));
#675=DIRECTION('center_axis',(0.,0.,1.));
#676=DIRECTION('ref_axis',(0.,-1.,0.));
#677=DIRECTION('',(1.,0.,0.));
#678=DIRECTION('center_axis',(0.,0.,1.));
#679=DIRECTION('ref_axis',(-1.,-2.22044604925031E-15,0.));
#680=DIRECTION('',(0.,-1.,0.));
#681=DIRECTION('center_axis',(0.,0.,1.));
#682=DIRECTION('ref_axis',(8.88178419700134E-15,1.,0.));
#683=DIRECTION('',(-1.,0.,0.));
#684=DIRECTION('center_axis',(0.,0.,-1.));
#685=DIRECTION('ref_axis',(-8.88178419700134E-15,-1.,0.));
#686=DIRECTION('',(0.,-1.,0.));
#687=DIRECTION('center_axis',(0.,0.,-1.));
#688=DIRECTION('ref_axis',(1.,5.92118946466745E-15,0.));
#689=DIRECTION('',(1.,0.,0.));
#690=DIRECTION('center_axis',(0.,0.,1.));
#691=DIRECTION('ref_axis',(-1.,-5.92118946466745E-15,0.));
#692=DIRECTION('',(0.,-1.,0.));
#693=DIRECTION('center_axis',(0.,0.,1.));
#694=DIRECTION('ref_axis',(-6.6613381477509E-15,1.,0.));
#695=DIRECTION('',(-1.,1.30614471424517E-16,0.));
#696=DIRECTION('center_axis',(0.,0.,1.));
#697=DIRECTION('ref_axis',(1.,-8.88178419700136E-15,0.));
#698=DIRECTION('',(0.,1.,0.));
#699=DIRECTION('center_axis',(0.,0.,1.));
#700=DIRECTION('ref_axis',(0.,-1.,0.));
#701=DIRECTION('',(1.,1.11022300187769E-15,0.));
#702=DIRECTION('center_axis',(0.,0.,-1.));
#703=DIRECTION('ref_axis',(1.1842378929335E-14,1.,0.));
#704=DIRECTION('',(0.,1.,0.));
#705=DIRECTION('center_axis',(0.,0.,-1.));
#706=DIRECTION('ref_axis',(-1.,-5.92118946466749E-15,0.));
#707=DIRECTION('',(-1.,5.55111500938847E-16,0.));
#708=DIRECTION('center_axis',(0.,0.,1.));
#709=DIRECTION('ref_axis',(1.,5.92118946466749E-15,0.));
#710=DIRECTION('',(0.,1.,0.));
#711=DIRECTION('center_axis',(0.,0.,-1.));
#712=DIRECTION('ref_axis',(1.,0.,0.));
#713=DIRECTION('center_axis',(0.,0.,-1.));
#714=DIRECTION('ref_axis',(1.,0.,0.));
#715=DIRECTION('center_axis',(0.,0.,-1.));
#716=DIRECTION('ref_axis',(1.,0.,0.));
#717=DIRECTION('center_axis',(0.,0.,-1.));
#718=DIRECTION('ref_axis',(1.,0.,0.));
#719=DIRECTION('center_axis',(-1.,0.,0.));
#720=DIRECTION('ref_axis',(0.,-1.,0.));
#721=DIRECTION('',(0.,0.,1.));
#722=DIRECTION('',(0.,-1.,0.));
#723=DIRECTION('',(0.,0.,1.));
#724=DIRECTION('center_axis',(0.,0.,1.));
#725=DIRECTION('ref_axis',(-1.,-5.92118946466745E-15,0.));
#726=DIRECTION('',(0.,0.,1.));
#727=DIRECTION('center_axis',(0.,0.,1.));
#728=DIRECTION('ref_axis',(-1.,-5.92118946466745E-15,0.));
#729=DIRECTION('center_axis',(0.,-1.,0.));
#730=DIRECTION('ref_axis',(1.,0.,0.));
#731=DIRECTION('',(0.,0.,1.));
#732=DIRECTION('',(1.,0.,0.));
#733=DIRECTION('center_axis',(0.,0.,1.));
#734=DIRECTION('ref_axis',(1.,5.92118946466745E-15,0.));
#735=DIRECTION('',(0.,0.,1.));
#736=DIRECTION('center_axis',(0.,0.,-1.));
#737=DIRECTION('ref_axis',(1.,5.92118946466745E-15,0.));
#738=DIRECTION('center_axis',(-1.,0.,0.));
#739=DIRECTION('ref_axis',(0.,-1.,0.));
#740=DIRECTION('',(0.,0.,1.));
#741=DIRECTION('',(0.,-1.,0.));
#742=DIRECTION('center_axis',(0.,0.,1.));
#743=DIRECTION('ref_axis',(-8.88178419700134E-15,-1.,0.));
#744=DIRECTION('',(0.,0.,1.));
#745=DIRECTION('center_axis',(0.,0.,-1.));
#746=DIRECTION('ref_axis',(-8.88178419700134E-15,-1.,0.));
#747=DIRECTION('center_axis',(0.,1.,0.));
#748=DIRECTION('ref_axis',(-1.,0.,0.));
#749=DIRECTION('',(0.,0.,1.));
#750=DIRECTION('',(-1.,0.,0.));
#751=DIRECTION('center_axis',(0.,0.,1.));
#752=DIRECTION('ref_axis',(8.88178419700134E-15,1.,0.));
#753=DIRECTION('',(0.,0.,1.));
#754=DIRECTION('center_axis',(0.,0.,1.));
#755=DIRECTION('ref_axis',(8.88178419700134E-15,1.,0.));
#756=DIRECTION('center_axis',(-1.,0.,0.));
#757=DIRECTION('ref_axis',(0.,-1.,0.));
#758=DIRECTION('',(0.,0.,1.));
#759=DIRECTION('',(0.,-1.,0.));
#760=DIRECTION('center_axis',(0.,0.,1.));
#761=DIRECTION('ref_axis',(-1.,-2.22044604925031E-15,0.));
#762=DIRECTION('',(0.,0.,1.));
#763=DIRECTION('center_axis',(0.,0.,1.));
#764=DIRECTION('ref_axis',(-1.,-2.22044604925031E-15,0.));
#765=DIRECTION('center_axis',(0.,-1.,0.));
#766=DIRECTION('ref_axis',(1.,0.,0.));
#767=DIRECTION('',(0.,0.,1.));
#768=DIRECTION('',(1.,0.,0.));
#769=DIRECTION('center_axis',(0.,0.,1.));
#770=DIRECTION('ref_axis',(0.,-1.,0.));
#771=DIRECTION('',(0.,0.,1.));
#772=DIRECTION('center_axis',(0.,0.,1.));
#773=DIRECTION('ref_axis',(0.,-1.,0.));
#774=DIRECTION('center_axis',(0.,0.,1.));
#775=DIRECTION('ref_axis',(1.,0.,0.));
#776=DIRECTION('center_axis',(0.,0.,-1.));
#777=DIRECTION('ref_axis',(1.,0.,0.));
#778=DIRECTION('',(0.,0.,-1.));
#779=DIRECTION('center_axis',(0.,0.,1.));
#780=DIRECTION('ref_axis',(1.,0.,0.));
#781=DIRECTION('center_axis',(0.,0.,-1.));
#782=DIRECTION('ref_axis',(1.,0.,0.));
#783=DIRECTION('',(0.,0.,-1.));
#784=DIRECTION('center_axis',(0.,0.,1.));
#785=DIRECTION('ref_axis',(1.,0.,0.));
#786=DIRECTION('center_axis',(0.,0.,-1.));
#787=DIRECTION('ref_axis',(1.,0.,0.));
#788=DIRECTION('',(0.,0.,-1.));
#789=DIRECTION('center_axis',(0.,0.,1.));
#790=DIRECTION('ref_axis',(1.,0.,0.));
#791=DIRECTION('center_axis',(0.,0.,-1.));
#792=DIRECTION('ref_axis',(1.,0.,0.));
#793=DIRECTION('',(0.,0.,-1.));
#794=DIRECTION('center_axis',(0.,0.,1.));
#795=DIRECTION('ref_axis',(-6.6613381477509E-15,1.,0.));
#796=DIRECTION('center_axis',(0.,0.,1.));
#797=DIRECTION('ref_axis',(-6.6613381477509E-15,1.,0.));
#798=DIRECTION('',(0.,0.,1.));
#799=DIRECTION('center_axis',(1.30614471424517E-16,1.,0.));
#800=DIRECTION('ref_axis',(-1.,1.30614471424517E-16,0.));
#801=DIRECTION('',(-1.,1.30614471424517E-16,0.));
#802=DIRECTION('',(0.,0.,1.));
#803=DIRECTION('center_axis',(0.,0.,1.));
#804=DIRECTION('ref_axis',(1.,-8.88178419700136E-15,0.));
#805=DIRECTION('center_axis',(0.,0.,1.));
#806=DIRECTION('ref_axis',(1.,-8.88178419700136E-15,0.));
#807=DIRECTION('',(0.,0.,1.));
#808=DIRECTION('center_axis',(1.,0.,0.));
#809=DIRECTION('ref_axis',(0.,1.,0.));
#810=DIRECTION('',(0.,1.,0.));
#811=DIRECTION('',(0.,0.,1.));
#812=DIRECTION('center_axis',(0.,0.,1.));
#813=DIRECTION('ref_axis',(0.,-1.,0.));
#814=DIRECTION('center_axis',(0.,0.,1.));
#815=DIRECTION('ref_axis',(0.,-1.,0.));
#816=DIRECTION('',(0.,0.,1.));
#817=DIRECTION('center_axis',(1.11022300187769E-15,-1.,0.));
#818=DIRECTION('ref_axis',(1.,1.11022300187769E-15,0.));
#819=DIRECTION('',(1.,1.11022300187769E-15,0.));
#820=DIRECTION('',(0.,0.,1.));
#821=DIRECTION('center_axis',(0.,0.,1.));
#822=DIRECTION('ref_axis',(1.1842378929335E-14,1.,0.));
#823=DIRECTION('center_axis',(0.,0.,-1.));
#824=DIRECTION('ref_axis',(1.1842378929335E-14,1.,0.));
#825=DIRECTION('',(0.,0.,1.));
#826=DIRECTION('center_axis',(1.,0.,0.));
#827=DIRECTION('ref_axis',(0.,1.,0.));
#828=DIRECTION('',(0.,1.,0.));
#829=DIRECTION('',(0.,0.,1.));
#830=DIRECTION('center_axis',(0.,0.,1.));
#831=DIRECTION('ref_axis',(-1.,-5.92118946466749E-15,0.));
#832=DIRECTION('center_axis',(0.,0.,-1.));
#833=DIRECTION('ref_axis',(-1.,-5.92118946466749E-15,0.));
#834=DIRECTION('',(0.,0.,1.));
#835=DIRECTION('center_axis',(5.55111500938847E-16,1.,0.));
#836=DIRECTION('ref_axis',(-1.,5.55111500938847E-16,0.));
#837=DIRECTION('',(-1.,5.55111500938847E-16,0.));
#838=DIRECTION('',(0.,0.,1.));
#839=DIRECTION('center_axis',(0.,0.,1.));
#840=DIRECTION('ref_axis',(1.,5.92118946466749E-15,0.));
#841=DIRECTION('center_axis',(0.,0.,1.));
#842=DIRECTION('ref_axis',(1.,5.92118946466749E-15,0.));
#843=DIRECTION('',(0.,0.,1.));
#844=DIRECTION('center_axis',(1.,0.,0.));
#845=DIRECTION('ref_axis',(0.,1.,0.));
#846=DIRECTION('',(0.,1.,0.));
#847=DIRECTION('center_axis',(0.,0.,1.));
#848=DIRECTION('ref_axis',(1.,0.,0.));
#849=CARTESIAN_POINT('',(0.,0.,0.));
#850=CARTESIAN_POINT('Origin',(56.000000834465,40.0000005960464,7.));
#851=CARTESIAN_POINT('',(90.0000013709068,20.0000002980232,7.));
#852=CARTESIAN_POINT('',(92.0000013709068,22.0000002980232,7.));
#853=CARTESIAN_POINT('Origin',(90.0000013709068,22.0000002980232,7.));
#854=CARTESIAN_POINT('',(22.0000002980232,20.0000002980232,7.));
#855=CARTESIAN_POINT('',(39.0000005662441,20.0000002980232,7.));
#856=CARTESIAN_POINT('',(20.0000002980232,22.0000002980232,7.));
#857=CARTESIAN_POINT('Origin',(22.0000002980232,22.0000002980232,7.));
#858=CARTESIAN_POINT('',(20.0000002980232,26.5000004172325,7.));
#859=CARTESIAN_POINT('',(20.0000002980232,33.2500005066395,7.));
#860=CARTESIAN_POINT('',(21.5000002980232,28.0000004172325,7.));
#861=CARTESIAN_POINT('Origin',(21.5000002980232,26.5000004172325,7.));
#862=CARTESIAN_POINT('',(29.500000461936,28.0000004172325,7.));
#863=CARTESIAN_POINT('',(42.7500006482005,28.0000004172325,7.));
#864=CARTESIAN_POINT('',(31.000000461936,29.5000004172325,7.));
#865=CARTESIAN_POINT('Origin',(29.500000461936,29.5000004172325,7.));
#866=CARTESIAN_POINT('',(31.000000461936,50.5000007748604,7.));
#867=CARTESIAN_POINT('',(31.000000461936,45.2500006854534,7.));
#868=CARTESIAN_POINT('',(29.500000461936,52.0000007748604,7.));
#869=CARTESIAN_POINT('Origin',(29.500000461936,50.5000007748604,7.));
#870=CARTESIAN_POINT('',(21.5000002980232,52.0000007748604,7.));
#871=CARTESIAN_POINT('',(38.7500005662441,52.0000007748604,7.));
#872=CARTESIAN_POINT('',(20.0000002980232,53.5000007748604,7.));
#873=CARTESIAN_POINT('Origin',(21.5000002980232,53.5000007748604,7.));
#874=CARTESIAN_POINT('',(20.0000002980232,58.0000008940697,7.));
#875=CARTESIAN_POINT('',(20.0000002980232,49.0000007450581,7.));
#876=CARTESIAN_POINT('',(22.0000002980232,60.0000008940697,7.));
#877=CARTESIAN_POINT('Origin',(22.0000002980232,58.0000008940697,7.));
#878=CARTESIAN_POINT('',(90.0000013709068,60.0000008940697,7.));
#879=CARTESIAN_POINT('',(73.0000011026859,60.0000008940697,7.));
#880=CARTESIAN_POINT('',(92.0000013709068,58.0000008940697,7.));
#881=CARTESIAN_POINT('Origin',(90.0000013709069,58.0000008940697,7.));
#882=CARTESIAN_POINT('',(92.0000013709068,48.5000007003546,7.));
#883=CARTESIAN_POINT('',(92.0000013709068,44.2500006482005,7.));
#884=CARTESIAN_POINT('',(90.5000013709068,47.0000007003546,7.));
#885=CARTESIAN_POINT('Origin',(90.5000013709068,48.5000007003546,7.));
#886=CARTESIAN_POINT('',(82.5000012069941,47.0000007003546,7.));
#887=CARTESIAN_POINT('',(69.2500010207296,47.0000007003545,7.));
#888=CARTESIAN_POINT('',(81.0000012069941,45.5000007003546,7.));
#889=CARTESIAN_POINT('Origin',(82.5000012069941,45.5000007003546,7.));
#890=CARTESIAN_POINT('',(81.0000012069941,34.5000004917383,7.));
#891=CARTESIAN_POINT('',(81.0000012069941,37.2500005438924,7.));
#892=CARTESIAN_POINT('',(82.5000012069941,33.0000004917383,7.));
#893=CARTESIAN_POINT('Origin',(82.5000012069941,34.5000004917383,7.));
#894=CARTESIAN_POINT('',(90.5000013709068,33.0000004917383,7.));
#895=CARTESIAN_POINT('',(73.2500011026859,33.0000004917383,7.));
#896=CARTESIAN_POINT('',(92.0000013709068,31.5000004917383,7.));
#897=CARTESIAN_POINT('Origin',(90.5000013709068,31.5000004917383,7.));
#898=CARTESIAN_POINT('',(92.0000013709068,31.0000004470348,7.));
#899=CARTESIAN_POINT('',(21.4000003427267,57.0000008493662,7.));
#900=CARTESIAN_POINT('Origin',(23.0000003427267,57.0000008493662,7.));
#901=CARTESIAN_POINT('',(21.4000003427267,23.0000003427267,7.));
#902=CARTESIAN_POINT('Origin',(23.0000003427267,23.0000003427267,7.));
#903=CARTESIAN_POINT('',(87.4000013262034,57.0000008493662,7.));
#904=CARTESIAN_POINT('Origin',(89.0000013262033,57.0000008493662,7.));
#905=CARTESIAN_POINT('',(87.4000013262034,23.0000003427267,7.));
#906=CARTESIAN_POINT('Origin',(89.0000013262033,23.0000003427267,7.));
#907=CARTESIAN_POINT('Origin',(20.0000002980232,58.0000008940697,0.));
#908=CARTESIAN_POINT('',(20.0000002980232,53.5000007748604,10.));
#909=CARTESIAN_POINT('',(20.0000002980232,53.5000007748604,0.));
#910=CARTESIAN_POINT('',(20.0000002980232,58.0000008940697,10.));
#911=CARTESIAN_POINT('',(20.0000002980232,58.0000008940697,10.));
#912=CARTESIAN_POINT('',(20.0000002980232,58.0000008940697,0.));
#913=CARTESIAN_POINT('Origin',(21.5000002980232,53.5000007748604,0.));
#914=CARTESIAN_POINT('',(21.5000002980232,52.0000007748604,10.));
#915=CARTESIAN_POINT('',(21.5000002980232,52.0000007748604,0.));
#916=CARTESIAN_POINT('Origin',(21.5000002980232,53.5000007748604,10.));
#917=CARTESIAN_POINT('Origin',(21.5000002980232,52.0000007748604,0.));
#918=CARTESIAN_POINT('',(29.500000461936,52.0000007748604,10.));
#919=CARTESIAN_POINT('',(29.500000461936,52.0000007748604,0.));
#920=CARTESIAN_POINT('',(29.500000461936,52.0000007748604,10.));
#921=CARTESIAN_POINT('Origin',(29.500000461936,50.5000007748604,0.));
#922=CARTESIAN_POINT('',(31.000000461936,50.5000007748604,10.));
#923=CARTESIAN_POINT('',(31.000000461936,50.5000007748604,0.));
#924=CARTESIAN_POINT('Origin',(29.500000461936,50.5000007748604,10.));
#925=CARTESIAN_POINT('Origin',(31.000000461936,50.5000007748604,0.));
#926=CARTESIAN_POINT('',(31.000000461936,29.5000004172325,10.));
#927=CARTESIAN_POINT('',(31.000000461936,29.5000004172325,0.));
#928=CARTESIAN_POINT('',(31.000000461936,40.0000005960464,10.));
#929=CARTESIAN_POINT('Origin',(29.500000461936,29.5000004172325,0.));
#930=CARTESIAN_POINT('',(29.500000461936,28.0000004172325,10.));
#931=CARTESIAN_POINT('',(29.500000461936,28.0000004172325,0.));
#932=CARTESIAN_POINT('Origin',(29.500000461936,29.5000004172325,10.));
#933=CARTESIAN_POINT('Origin',(29.500000461936,28.0000004172325,0.));
#934=CARTESIAN_POINT('',(21.5000002980232,28.0000004172325,10.));
#935=CARTESIAN_POINT('',(21.5000002980232,28.0000004172325,0.));
#936=CARTESIAN_POINT('',(29.500000461936,28.0000004172325,10.));
#937=CARTESIAN_POINT('Origin',(21.5000002980232,26.5000004172325,0.));
#938=CARTESIAN_POINT('',(20.0000002980232,26.5000004172325,10.));
#939=CARTESIAN_POINT('',(20.0000002980232,26.5000004172325,0.));
#940=CARTESIAN_POINT('Origin',(21.5000002980232,26.5000004172325,10.));
#941=CARTESIAN_POINT('Origin',(20.0000002980232,26.5000004172325,0.));
#942=CARTESIAN_POINT('',(20.0000002980232,22.0000002980232,10.));
#943=CARTESIAN_POINT('',(20.0000002980232,22.0000002980232,0.));
#944=CARTESIAN_POINT('',(20.0000002980232,22.0000002980232,10.));
#945=CARTESIAN_POINT('Origin',(22.0000002980232,22.0000002980232,0.));
#946=CARTESIAN_POINT('',(22.0000002980232,20.0000002980232,10.));
#947=CARTESIAN_POINT('',(22.0000002980232,20.0000002980232,0.));
#948=CARTESIAN_POINT('Origin',(22.0000002980232,22.0000002980232,10.));
#949=CARTESIAN_POINT('Origin',(22.0000002980232,20.0000002980232,0.));
#950=CARTESIAN_POINT('',(90.0000013709068,20.0000002980232,10.));
#951=CARTESIAN_POINT('',(90.0000013709068,20.0000002980232,0.));
#952=CARTESIAN_POINT('',(90.0000013709068,20.0000002980232,10.));
#953=CARTESIAN_POINT('Origin',(90.0000013709068,22.0000002980232,0.));
#954=CARTESIAN_POINT('',(92.0000013709068,22.0000002980232,10.));
#955=CARTESIAN_POINT('',(92.0000013709068,22.0000002980232,0.));
#956=CARTESIAN_POINT('Origin',(90.0000013709068,22.0000002980232,10.));
#957=CARTESIAN_POINT('Origin',(89.0000013262033,23.0000003427267,0.));
#958=CARTESIAN_POINT('',(87.4000013262034,23.0000003427267,10.));
#959=CARTESIAN_POINT('Origin',(89.0000013262033,23.0000003427267,10.));
#960=CARTESIAN_POINT('',(87.4000013262034,23.0000003427267,0.));
#961=CARTESIAN_POINT('Origin',(89.0000013262033,57.0000008493662,0.));
#962=CARTESIAN_POINT('',(87.4000013262034,57.0000008493662,10.));
#963=CARTESIAN_POINT('Origin',(89.0000013262033,57.0000008493662,10.));
#964=CARTESIAN_POINT('',(87.4000013262034,57.0000008493662,0.));
#965=CARTESIAN_POINT('Origin',(23.0000003427267,23.0000003427267,0.));
#966=CARTESIAN_POINT('',(21.4000003427267,23.0000003427267,10.));
#967=CARTESIAN_POINT('Origin',(23.0000003427267,23.0000003427267,10.));
#968=CARTESIAN_POINT('',(21.4000003427267,23.0000003427267,0.));
#969=CARTESIAN_POINT('Origin',(23.0000003427267,57.0000008493662,0.));
#970=CARTESIAN_POINT('',(21.4000003427267,57.0000008493662,10.));
#971=CARTESIAN_POINT('Origin',(23.0000003427267,57.0000008493662,10.));
#972=CARTESIAN_POINT('',(21.4000003427267,57.0000008493662,0.));
#973=CARTESIAN_POINT('Origin',(22.0000002980232,58.0000008940697,0.));
#974=CARTESIAN_POINT('',(22.0000002980232,60.0000008940697,10.));
#975=CARTESIAN_POINT('Origin',(22.0000002980232,58.0000008940697,10.));
#976=CARTESIAN_POINT('',(22.0000002980232,60.0000008940697,0.));
#977=CARTESIAN_POINT('Origin',(90.0000013709068,60.0000008940697,0.));
#978=CARTESIAN_POINT('',(90.0000013709068,60.0000008940697,10.));
#979=CARTESIAN_POINT('',(22.0000002980232,60.0000008940697,10.));
#980=CARTESIAN_POINT('',(90.0000013709068,60.0000008940697,0.));
#981=CARTESIAN_POINT('Origin',(90.0000013709069,58.0000008940697,0.));
#982=CARTESIAN_POINT('',(92.0000013709068,58.0000008940697,10.));
#983=CARTESIAN_POINT('Origin',(90.0000013709069,58.0000008940697,10.));
#984=CARTESIAN_POINT('',(92.0000013709068,58.0000008940697,0.));
#985=CARTESIAN_POINT('Origin',(92.0000013709068,48.5000007003546,0.));
#986=CARTESIAN_POINT('',(92.0000013709068,48.5000007003546,10.));
#987=CARTESIAN_POINT('',(92.0000013709068,58.0000008940697,10.));
#988=CARTESIAN_POINT('',(92.0000013709068,48.5000007003546,0.));
#989=CARTESIAN_POINT('Origin',(90.5000013709068,48.5000007003546,0.));
#990=CARTESIAN_POINT('',(90.5000013709068,47.0000007003546,10.));
#991=CARTESIAN_POINT('Origin',(90.5000013709068,48.5000007003546,10.));
#992=CARTESIAN_POINT('',(90.5000013709068,47.0000007003546,0.));
#993=CARTESIAN_POINT('Origin',(82.5000012069941,47.0000007003546,0.));
#994=CARTESIAN_POINT('',(82.5000012069941,47.0000007003546,10.));
#995=CARTESIAN_POINT('',(82.5000012069941,47.0000007003546,10.));
#996=CARTESIAN_POINT('',(82.5000012069941,47.0000007003546,0.));
#997=CARTESIAN_POINT('Origin',(82.5000012069941,45.5000007003546,0.));
#998=CARTESIAN_POINT('',(81.0000012069941,45.5000007003546,10.));
#999=CARTESIAN_POINT('Origin',(82.5000012069941,45.5000007003546,10.));
#1000=CARTESIAN_POINT('',(81.0000012069941,45.5000007003546,0.));
#1001=CARTESIAN_POINT('Origin',(81.0000012069941,34.5000004917383,0.));
#1002=CARTESIAN_POINT('',(81.0000012069941,34.5000004917383,10.));
#1003=CARTESIAN_POINT('',(81.0000012069941,40.0000005960464,10.));
#1004=CARTESIAN_POINT('',(81.0000012069941,34.5000004917383,0.));
#1005=CARTESIAN_POINT('Origin',(82.5000012069941,34.5000004917383,0.));
#1006=CARTESIAN_POINT('',(82.5000012069941,33.0000004917383,10.));
#1007=CARTESIAN_POINT('Origin',(82.5000012069941,34.5000004917383,10.));
#1008=CARTESIAN_POINT('',(82.5000012069941,33.0000004917383,0.));
#1009=CARTESIAN_POINT('Origin',(90.5000013709068,33.0000004917383,0.));
#1010=CARTESIAN_POINT('',(90.5000013709068,33.0000004917383,10.));
#1011=CARTESIAN_POINT('',(82.5000012069941,33.0000004917383,10.));
#1012=CARTESIAN_POINT('',(90.5000013709068,33.0000004917383,0.));
#1013=CARTESIAN_POINT('Origin',(90.5000013709068,31.5000004917383,0.));
#1014=CARTESIAN_POINT('',(92.0000013709068,31.5000004917383,10.));
#1015=CARTESIAN_POINT('Origin',(90.5000013709068,31.5000004917383,10.));
#1016=CARTESIAN_POINT('',(92.0000013709068,31.5000004917383,0.));
#1017=CARTESIAN_POINT('Origin',(92.0000013709068,22.0000002980232,0.));
#1018=CARTESIAN_POINT('',(92.0000013709068,31.5000004917383,10.));
#1019=CARTESIAN_POINT('Origin',(56.000000834465,40.0000005960464,10.));
#1020=UNCERTAINTY_MEASURE_WITH_UNIT(LENGTH_MEASURE(0.01),#1024,
'DISTANCE_ACCURACY_VALUE',
'Maximum model space distance between geometric entities at asserted c
onnectivities');
#1021=UNCERTAINTY_MEASURE_WITH_UNIT(LENGTH_MEASURE(0.01),#1024,
'DISTANCE_ACCURACY_VALUE',
'Maximum model space distance between geometric entities at asserted c
onnectivities');
#1022=(
GEOMETRIC_REPRESENTATION_CONTEXT(3)
GLOBAL_UNCERTAINTY_ASSIGNED_CONTEXT((#1020))
GLOBAL_UNIT_ASSIGNED_CONTEXT((#1024,#1026,#1027))
REPRESENTATION_CONTEXT('','3D')
);
#1023=(
GEOMETRIC_REPRESENTATION_CONTEXT(3)
GLOBAL_UNCERTAINTY_ASSIGNED_CONTEXT((#1021))
GLOBAL_UNIT_ASSIGNED_CONTEXT((#1024,#1026,#1027))
REPRESENTATION_CONTEXT('','3D')
);
#1024=(
LENGTH_UNIT()
NAMED_UNIT(*)
SI_UNIT(.MILLI.,.METRE.)
);
#1025=(
LENGTH_UNIT()
NAMED_UNIT(*)
SI_UNIT($,.METRE.)
);
#1026=(
NAMED_UNIT(*)
PLANE_ANGLE_UNIT()
SI_UNIT($,.RADIAN.)
);
#1027=(
NAMED_UNIT(*)
SI_UNIT($,.STERADIAN.)
SOLID_ANGLE_UNIT()
);
#1028=SHAPE_DEFINITION_REPRESENTATION(#1029,#1030);
#1029=PRODUCT_DEFINITION_SHAPE('',$,#1032);
#1030=SHAPE_REPRESENTATION('',(#608),#1022);
#1031=PRODUCT_DEFINITION_CONTEXT('part definition',#1036,'design');
#1032=PRODUCT_DEFINITION('2026-04-17-20-45-25-740','Transmitter Cover',
#1033,#1031);
#1033=PRODUCT_DEFINITION_FORMATION('',$,#1038);
#1034=PRODUCT_RELATED_PRODUCT_CATEGORY('Transmitter Cover',
'Transmitter Cover',(#1038));
#1035=APPLICATION_PROTOCOL_DEFINITION('international standard',
'automotive_design',2009,#1036);
#1036=APPLICATION_CONTEXT(
'Core Data for Automotive Mechanical Design Process');
#1037=PRODUCT_CONTEXT('part definition',#1036,'mechanical');
#1038=PRODUCT('2026-04-17-20-45-25-740','Transmitter Cover',$,(#1037));
#1039=PRESENTATION_STYLE_ASSIGNMENT((#1040));
#1040=SURFACE_STYLE_USAGE(.BOTH.,#1041);
#1041=SURFACE_SIDE_STYLE('',(#1042));
#1042=SURFACE_STYLE_FILL_AREA(#1043);
#1043=FILL_AREA_STYLE('Steel - Satin',(#1044));
#1044=FILL_AREA_STYLE_COLOUR('Steel - Satin',#1045);
#1045=COLOUR_RGB('Steel - Satin',0.627450980392157,0.627450980392157,0.627450980392157);
ENDSEC;
END-ISO-10303-21;
